<svg width="48" height="40" viewBox="0 0 48 40" fill="none" xmlns="http://www.w3.org/2000/svg">
<path fill-rule="evenodd" clip-rule="evenodd" d="M12 4.56104C8.18638 4.56104 4.99601 7.2295 4.19421 10.8011H43.8058C43.004 7.2295 39.8136 4.56104 36 4.56104H12ZM0 12.561V12.8011V27.461C0 34.0885 5.37258 39.461 12 39.461H36C42.6274 39.461 48 34.0885 48 27.461V12.8011V12.561C48 5.93362 42.6274 0.561035 36 0.561035H12C5.37258 0.561035 0 5.93362 0 12.561ZM44 27.461V14.8011H4V27.461C4 31.8793 7.58172 35.461 12 35.461H36C40.4183 35.461 44 31.8793 44 27.461ZM28.46 25.5011C27.3554 25.5011 26.46 26.3966 26.46 27.5011C26.46 28.6057 27.3554 29.5011 28.46 29.5011H36.04C37.1445 29.5011 38.04 28.6057 38.04 27.5011C38.04 26.3966 37.1445 25.5011 36.04 25.5011H28.46Z" fill="#F5C249"/>
</svg>
